<svg xmlns="http://www.w3.org/2000/svg"  viewBox="0 0 100 100" width="50px" height="50px"><path d="M 64.179688 17.703125 A 2.0002 2.0002 0 0 0 64.029297 17.707031 C 64.029297 17.707031 55.825006 18.229565 49.816406 18.710938 C 47.095158 18.928946 41.381021 18.792128 36.486328 18.580078 C 31.591635 18.368033 27.439453 18.095703 27.439453 18.095703 A 2.0002 2.0002 0 0 0 25.830078 18.746094 L 14.396484 31.298828 A 2.0002 2.0002 0 0 0 13.972656 33.332031 C 12.921871 39.044231 12.714004 48.810751 12.679688 58.613281 C 12.644217 68.743835 12.794468 78.692243 12.550781 82.519531 L 12.638672 82.246094 C 12.547478 82.766013 12.577849 83.384083 12.816406 83.789062 C 13.174864 84.39758 13.552944 84.560095 13.810547 84.685547 C 14.325753 84.93645 14.659842 84.978586 15.072266 85.046875 C 15.897114 85.183452 16.919611 85.255982 18.195312 85.308594 C 20.746719 85.413816 24.230445 85.415285 27.990234 85.378906 C 35.509813 85.306156 44.161616 85.078657 47.996094 85.162109 C 65.478997 85.540367 85.962891 85.826172 85.962891 85.826172 A 2.0002 2.0002 0 0 0 87.990234 83.773438 C 87.990234 83.773438 87.706475 73.31932 87.646484 61.669922 C 87.586494 50.020524 87.823684 36.905552 88.605469 32.671875 A 2.0002 2.0002 0 0 0 88.619141 32.037109 A 2.0002 2.0002 0 0 0 88.158203 30.787109 L 78.324219 18.597656 A 2.0002 2.0002 0 0 0 76.791016 17.853516 L 64.179688 17.703125 z M 64.214844 21.703125 L 70.189453 21.775391 L 69.255859 23.257812 A 1.0001 1.0001 0 1 0 70.947266 24.324219 L 72.535156 21.802734 L 75.800781 21.841797 L 76.650391 22.894531 L 73.222656 24.175781 A 1.0001 1.0001 0 1 0 73.923828 26.048828 L 77.972656 24.535156 L 78.853516 25.625 L 76.869141 26.441406 A 1.0001 1.0001 0 1 0 77.628906 28.291016 L 80.164062 27.248047 L 82.837891 30.5625 C 78.683432 30.87112 66.159628 31.767779 55.15625 32.142578 C 54.894055 28.743572 54.528642 25.480558 53.998047 22.425781 C 58.618561 22.093957 64.157868 21.706762 64.214844 21.703125 z M 28.148438 22.140625 C 28.909893 22.189355 31.893399 22.38473 36.3125 22.576172 C 38.53225 22.672335 40.865152 22.751659 43.074219 22.792969 L 41.441406 24.478516 A 1.0001 1.0001 0 1 0 42.876953 25.871094 L 45.839844 22.8125 C 47.404487 22.809607 48.870753 22.784667 50.009766 22.697266 C 50.047691 22.908679 50.077224 23.133122 50.113281 23.347656 L 46.818359 24.980469 A 1.0001 1.0001 0 1 0 47.707031 26.771484 L 50.431641 25.421875 C 50.540542 26.215087 50.635702 27.030462 50.726562 27.853516 L 48.599609 27.857422 A 1.0001 1.0001 0 1 0 48.603516 29.857422 L 50.917969 29.851562 C 50.991933 30.639137 51.078878 31.404833 51.142578 32.208984 C 49.610246 32.231174 47.614599 32.321827 46.498047 32.287109 C 32.629338 31.855738 25.998746 32.407465 19.605469 31.521484 L 28.148438 22.140625 z M 84.488281 34.462891 C 83.74907 40.556336 83.592289 51.1673 83.646484 61.691406 C 83.701064 72.290923 83.912798 80.075906 83.957031 81.791016 C 83.519659 81.784805 80.274076 81.733905 78.587891 81.708984 L 76.953125 77.716797 A 1.0001 1.0001 0 0 0 76.017578 77.082031 A 1.0001 1.0001 0 0 0 75.101562 78.474609 L 76.412109 81.675781 C 75.645306 81.664126 75.340097 81.660346 74.453125 81.646484 A 1.0003376 1.0003376 0 0 0 74.566406 80.921875 L 73.691406 76.982422 A 1.0001 1.0001 0 0 0 72.679688 76.1875 A 1.0001 1.0001 0 0 0 71.740234 77.416016 L 72.613281 81.355469 A 1.0003376 1.0003376 0 0 0 72.712891 81.619141 C 70.164544 81.578238 67.383899 81.520867 64.304688 81.466797 L 65.263672 76.501953 A 1.0001 1.0001 0 0 0 64.259766 75.298828 A 1.0001 1.0001 0 0 0 63.300781 76.123047 L 62.277344 81.427734 C 60.285843 81.391995 58.372994 81.3567 56.28125 81.316406 L 57.777344 76.363281 A 1.0001 1.0001 0 0 0 56.802734 75.060547 A 1.0001 1.0001 0 0 0 55.863281 75.783203 L 54.205078 81.277344 C 53.48733 81.263138 52.88736 81.252964 52.166016 81.238281 L 53.369141 78.548828 A 1.0001 1.0001 0 0 0 52.46875 77.126953 A 1.0001 1.0001 0 0 0 51.544922 77.732422 L 49.996094 81.197266 C 49.318838 81.183038 48.759619 81.176727 48.083984 81.162109 C 45.61016 81.108268 41.463978 81.169509 36.982422 81.244141 L 37.140625 80.949219 A 1.0001 1.0001 0 0 0 36.246094 79.460938 A 1.0001 1.0001 0 0 0 35.380859 79.998047 L 34.689453 81.277344 C 33.472557 81.297389 32.297123 81.314847 31.074219 81.332031 L 31.59375 80.496094 A 1.0001 1.0001 0 0 0 30.691406 78.957031 A 1.0001 1.0001 0 0 0 29.894531 79.439453 L 28.697266 81.367188 C 28.449121 81.369901 28.197161 81.376526 27.951172 81.378906 C 27.356221 81.384662 26.841341 81.381331 26.263672 81.384766 L 28.037109 79.28125 A 1.0001 1.0001 0 0 0 27.267578 77.626953 A 1.0001 1.0001 0 0 0 26.507812 77.992188 L 23.640625 81.392578 C 22.58915 81.390605 21.694245 81.373118 20.78125 81.357422 L 25.777344 76.449219 A 1.0001 1.0001 0 0 0 25.066406 74.726562 A 1.0001 1.0001 0 0 0 24.376953 75.023438 L 18.005859 81.283203 C 17.444168 81.24979 16.969169 81.210407 16.552734 81.167969 C 16.576771 80.615947 16.583528 79.853721 16.599609 79.203125 L 20.853516 76.587891 A 1.0001 1.0001 0 0 0 20.345703 74.728516 A 1.0001 1.0001 0 0 0 19.804688 74.884766 L 16.654297 76.822266 C 16.708202 72.041403 16.655241 65.610707 16.679688 58.626953 C 16.711827 49.447069 17.017504 40.450183 17.785156 35.289062 C 19.675739 35.610827 21.530879 35.802043 23.482422 35.917969 L 24.460938 39.121094 A 1.0001 1.0001 0 1 0 26.373047 38.537109 L 25.601562 36.007812 C 26.265303 36.03012 26.963395 36.046701 27.664062 36.058594 L 28.193359 42.837891 A 1.0001265 1.0001265 0 0 0 30.1875 42.681641 L 29.673828 36.089844 C 34.042169 36.121943 39.260188 36.063919 46.373047 36.285156 C 50.883858 36.425436 58.179241 36.130986 65.228516 35.742188 L 64.564453 36.853516 A 1.0001906 1.0001906 0 1 0 66.283203 37.876953 L 67.634766 35.611328 C 68.129971 35.582305 68.508154 35.554932 68.996094 35.525391 L 67.003906 39.115234 A 1.0001 1.0001 0 1 0 68.751953 40.085938 L 71.367188 35.371094 C 71.958433 35.333481 72.481221 35.299059 73.050781 35.261719 L 70.923828 39.214844 A 1.0001206 1.0001206 0 1 0 72.685547 40.162109 L 75.40625 35.107422 C 76.826534 35.010846 78.103693 34.931343 79.267578 34.847656 L 77.158203 37.380859 A 1.0001 1.0001 0 1 0 78.695312 38.660156 L 82.041016 34.644531 C 82.79288 34.588 84.117416 34.491521 84.488281 34.462891 z M 59.826172 45.03125 C 56.013011 45.05525 46.785709 45.11467 42.916016 45.138672 C 41.667045 45.147372 40.720951 46.020992 40.283203 47.144531 A 1.0001 1.0001 0 0 0 40.28125 47.146484 A 1.0001 1.0001 0 0 0 39.957031 47.759766 C 39.956835 47.761266 39.955278 47.762172 39.955078 47.763672 A 1.0001 1.0001 0 0 0 39.947266 47.890625 L 39.96875 47.890625 C 40.0108 47.89062 41.947266 47.89112 41.947266 47.890625 L 41.939453 48.015625 C 42.003423 47.50998 42.419083 47.142232 42.929688 47.138672 C 46.799993 47.114672 56.027005 47.055252 59.839844 47.03125 C 60.297782 47.02835 60.663875 47.355853 60.714844 47.810547 A 1.0001 1.0001 0 0 0 60.714844 47.816406 C 60.769774 48.323695 60.609877 48.829814 60.275391 49.214844 C 60.275391 49.214844 60.275391 49.216797 60.275391 49.216797 C 59.938831 49.601499 59.458549 49.828903 58.949219 49.84375 C 55.004215 49.96075 48.160858 50.164112 44.001953 50.287109 C 43.411355 50.304519 42.844229 50.062128 42.447266 49.625 C 42.050947 49.18925 41.864537 48.603526 41.939453 48.017578 L 39.96875 47.892578 C 39.862733 49.014899 40.206801 50.135093 40.966797 50.970703 C 41.755834 51.839575 42.887145 52.319746 44.060547 52.285156 C 48.219642 52.162153 55.062816 51.958797 59.007812 51.841797 C 60.07558 51.810667 61.081853 51.335302 61.783203 50.53125 A 1.0001 1.0001 0 0 0 61.785156 50.529297 C 62.484523 49.725918 62.8182 48.665563 62.705078 47.605469 A 1.0001 1.0001 0 0 0 62.705078 47.597656 C 62.546673 46.140009 61.293155 45.02211 59.826172 45.03125 z M 31.511719 49.039062 C 31.258469 49.001937 30.991031 49.061563 30.769531 49.226562 C 30.326531 49.555563 30.234453 50.183953 30.564453 50.626953 C 30.894453 51.069953 31.520891 51.160078 31.962891 50.830078 C 32.405891 50.501078 32.497969 49.874641 32.167969 49.431641 C 32.003469 49.210141 31.764969 49.076188 31.511719 49.039062 z M 28.003906 56.115234 C 27.750656 56.078109 27.483219 56.137734 27.261719 56.302734 C 26.818719 56.631734 26.726641 57.258172 27.056641 57.701172 C 27.386641 58.143172 28.013078 58.23525 28.455078 57.90625 C 28.898078 57.57725 28.990156 56.950812 28.660156 56.507812 C 28.495656 56.286313 28.257156 56.152359 28.003906 56.115234 z M 72.193359 60.779297 C 71.803781 60.788859 71.438609 61.027359 71.287109 61.412109 C 71.084109 61.925109 71.336609 62.506984 71.849609 62.708984 C 72.362609 62.911984 72.943484 62.659484 73.146484 62.146484 C 73.349484 61.633484 73.096984 61.051609 72.583984 60.849609 C 72.455734 60.798859 72.323219 60.776109 72.193359 60.779297 z M 72.941406 68.640625 C 72.551828 68.650187 72.186656 68.888688 72.035156 69.273438 C 71.832156 69.786438 72.084656 70.368313 72.597656 70.570312 C 73.110656 70.772313 73.691531 70.520813 73.894531 70.007812 C 74.097531 69.494813 73.845031 68.912937 73.332031 68.710938 C 73.203781 68.660187 73.071266 68.637438 72.941406 68.640625 z M 62.521484 68.986328 C 62.131906 68.995891 61.766734 69.234391 61.615234 69.619141 C 61.412234 70.132141 61.665687 70.714016 62.179688 70.916016 C 62.692687 71.119016 63.274563 70.866516 63.476562 70.353516 C 63.679562 69.840516 63.426109 69.258641 62.912109 69.056641 C 62.783859 69.005891 62.651344 68.983141 62.521484 68.986328 z"/></svg>